<svg xmlns="http://www.w3.org/2000/svg" version="1.1" width="600px" height="600px" viewBox="0 0 200 200" style="overflow:hidden!important;"><g id="svga-group-wrapper"><g id="svga-group-backs-single"><path id="SvgjsPath11733" d="M0 0h200v200H0V0z" fill="#ecf0f1" stroke-width="none" opacity="1"></path></g><g id="svga-group-humanwrap-move" transform="matrix(1,0,0,1,0,0)"><g id="svga-group-humanwrap" transform="matrix(1.0000001,0,0,1.0000001,-0.000009985001568679763,-0.000012866910566344814)"><g id="svga-group-hair-back-move" transform="matrix(1.0000000000000002,-1.457167719820518e-16,1.457167719820518e-16,1.0000000000000002,-4.263256414560601e-14,0)"><g id="svga-group-hair-back"><path id="SvgjsPath12047" d="M58.6 164.6s47.6 7 84.6.2c0 0 3.1-70.8-1.9-80.7s-75.1-17.4-80.7 1-3.4 72-2 79.5z" fill="#550826" stroke-width="none" opacity="1" stroke="none"></path></g></g><g id="svga-group-humanbody-back"><path id="SvgjsPath11756" d="m168.5 219.5-1.7-21.5s.7-9-8.8-15.3-23.4-10.1-29.5-14.2c-6.1-4.1-7.2-4.5-7-16.9s.9-40.3.9-40.3H77.6s.7 27.9.9 40.3c.2 12.4-.9 12.8-7 16.9-6.1 4.1-20 7.9-29.5 14.2S33.2 198 33.2 198l-1.6 21.5h136.9z" fill="#f3d4cf" stroke-width="none" opacity="1" stroke="none"></path></g><g id="svga-group-chinshadow-single"><path id="SvgjsPath12200" d="M121.5 153.4v-1.8c.2-12.4.9-40.3.9-40.3H77.6s.7 27.9.9 40.3v1.8c6.3 7 13.7 11.3 21.5 11.3s15.2-4.3 21.5-11.3z" fill="#d4958a" stroke-width="none" opacity="1"></path></g><g id="svga-group-humanbody-front"><path id="SvgjsPath11757" d="M166.3 193.3c-.2-.7-.5-1.5-.8-2.2-.2-.3-.3-.7-.5-1.1l-.6-1c-.1-.2-.2-.3-.3-.5l-.3-.5-.3-.5c-.1-.2-.2-.3-.4-.5l-.7-.9-.8-.8-.4-.4-.4-.4-.9-.8c-.1-.1-.3-.2-.5-.4l-.5-.3-.9-.7-1.2-.8-.6-.4-.6-.4-1.3-.7-1.3-.7c-.8-.5-1.7-.9-2.6-1.3-.9-.4-1.7-.8-2.6-1.2-3.5-1.6-7.1-3.1-10.6-4.6-1.8-.8-3.5-1.6-5.2-2.4l-.6-.3-.6-.4c-.4-.2-.8-.5-1.2-.7-.8-.5-1.6-1.1-2.4-1.6-.4-.3-.8-.6-1.2-.8-.2-.1-.4-.3-.5-.4-.2-.1-.4-.3-.5-.5-.7-.6-1.2-1.3-1.6-2.1l-.1-.1-.1-.2-.1-.3-.1-.3c0-.1-.1-.2-.1-.3l-.2-.7-.1-.7c-.1-.9-.2-1.9-.2-2.8-.1-3.8.1-7.7.3-11.5l.4-11.6c.2-7.7.4-15.5.5-23.2v-1.1h-1.1c-3.7 0-7.5 0-11.2.1l-11.2.1-22.4.3h-.5v.5c.3 9.3.6 18.5.7 27.8.1 4.6.2 9.3.2 13.9 0 2.3 0 4.6-.3 6.9-.2 1.1-.4 2.2-.9 3.2s-1.2 1.8-2.1 2.5-1.8 1.3-2.8 2l-.7.5c-.2.2-.5.3-.7.4-.5.3-1 .6-1.5.8-2 1-4.2 1.9-6.3 2.8-4.3 1.7-8.6 3.4-12.9 5.3-2.1 1-4.2 2-6.3 3.2-2 1.2-4.1 2.6-5.8 4.3s-3.2 3.8-4.2 6c-.5 1.1-.9 2.3-1.1 3.5-.1.3-.1.6-.2.9-.1.3-.1.6-.1.9 0 .3-2 23.9-2 23.9H169s-2.2-25.2-2.7-26.7zM33.2 218.8c0-.2 1.2-22.4 1.2-22.5 0-.3.1-.5.1-.8s.1-.5.1-.8c.2-1.1.6-2.1 1-3.1.9-2 2.1-3.8 3.6-5.4 1.5-1.6 3.4-2.8 5.3-4 1.9-1.2 4-2.2 6-3.3 4.1-2 8.4-3.8 12.7-5.6 2.1-.9 4.3-1.9 6.3-3l1.5-.9c.3-.2.5-.3.8-.5l.7-.5c1-.7 1.9-1.3 2.9-2.1.2-.2.4-.4.7-.6.2-.2.4-.5.6-.7s.4-.5.5-.8c.2-.3.3-.5.5-.8.5-1.1.8-2.3.9-3.5.3-2.4.2-4.7.2-7l-.2-13.9c-.2-9.1-.4-18.2-.5-27.3l21.9.3 11.2.1c3.4 0 6.7.1 10.1.1-.2 7.4-.4 14.7-.5 22.1l-.1 11.6v5.8c0 1.9 0 3.9.2 5.9.1 1 .2 2 .4 3l.2.7c.1.2.1.5.2.7 0 .1.1.2.1.4l.1.4.2.4.1.2.1.2c.5.9 1.2 1.7 1.9 2.4.2.2.4.3.6.5.2.1.4.3.6.4.4.3.8.6 1.2.8.8.5 1.6 1.1 2.5 1.6.4.3.9.5 1.3.7l.7.3.7.3c1.8.8 3.6 1.6 5.3 2.3 3.6 1.4 7.2 2.9 10.7 4.4 3.5 1.6 7 3.3 10.2 5.4l.9.7.5.3c.2.1.3.2.4.4l.9.8c.1.1.3.2.4.4l.4.4.8.8.7.9c.1.2.2.3.3.5l.3.5.3.5c.1.2.2.3.3.5.8 1.3 1.4 2.7 1.8 4.2.2.7.3 1.5.5 2.2.1.7 1.8 22.6 1.8 23.2-11.2-.2-135.1-.2-135.1-.2z" fill="#c5796d" stroke-width="none" opacity="1" stroke="none"></path><path id="SvgjsPath11758" d="M73.8 175.9c5.1 2.9 11.8 5.2 17.6 5.7.4 0 .4-.6.1-.7-2.8-1.1-5.9-1.7-8.8-2.6-2.9-.9-5.8-2-8.8-2.7-.1-.1-.3.2-.1.3z" fill="#d4958a" stroke-width="none" opacity="1" stroke="none"></path><path id="SvgjsPath11759" d="M109 182.1c5.3-.6 11.3-3 15.9-5.8.3-.2.1-.6-.2-.5-2.6.9-5.2 2-7.8 2.9-2.6.9-5.4 1.5-8 2.5-.5.1-.5.9.1.9z" fill="#d4958a" stroke-width="none" opacity="1" stroke="none"></path></g><g id="svga-group-clothes-single"><path id="SvgjsPath11912" d="m143.2 220 .1-3.6 26.8-2.6s-1.2-16.5-1.9-20-2.3-8.6-12.1-14-27.7-12.4-27.7-12.4c-31.6 30.5-56-.1-56.7 0 0 0-17.9 7-27.7 12.4s-11.4 10.5-12.1 14-1.9 20-1.9 20l26.8 2.6v3.6h86.4z" fill="#a44974" stroke-width="none" opacity="1" stroke="none"></path><path id="SvgjsPath11913" d="M170.7 213.8c-.4-5.8-.7-11.6-1.3-17.4-.3-2.9-.9-6-2.6-8.6-1.6-2.6-3.9-4.6-6.4-6.3-2.4-1.7-5.1-3.1-7.7-4.4-2.6-1.3-5.3-2.5-7.9-3.7-5.3-2.4-10.7-4.5-16.2-6.6-.2-.1-.5 0-.7.1-3.8 3.8-8 7.1-12.7 9.6-4.7 2.5-9.9 4-15.2 4.1-2.7 0-5.3-.3-7.9-.9-2.6-.7-5.1-1.7-7.4-2.9s-4.6-2.7-6.7-4.3c-1.1-.8-2.1-1.7-3.1-2.6-.5-.4-1-.9-1.4-1.4l-.7-.7-.4-.4-.2-.2-.1-.1-.1-.1s-.2-.1-.3-.1h-.1c-5.4 2.1-10.8 4.2-16.2 6.5-2.7 1.1-5.3 2.3-8 3.6-2.6 1.3-5.2 2.6-7.7 4.3-2.4 1.7-4.8 3.7-6.4 6.3-1.7 2.6-2.4 5.7-2.7 8.6-.7 5.8-1.1 11.6-1.6 17.4 0 .5.4 1 .9 1.1l13.4 1.3 12.5 1.2v2.7c0 .6.5 1 1 1 7.3 0 14.5 0 21.8-.1l21.7-.2 43-.6.2-3.5 13.2-1 13.4-1.1c.4 0 .6-.3.6-.6zm-14.1.8-13.4 1.6c-.1 0-.2.1-.2.2l.1 3.6-43.4-.6-21.5-.2c-6.8-.1-13.6-.1-20.4-.1v-2.6c0-.5-.4-1-.9-1L43.5 214 31 212.9c.4-5.4.8-10.9 1.3-16.3.3-2.9.9-5.6 2.3-7.9 1.5-2.3 3.6-4.2 5.9-5.9 2.3-1.6 4.8-3 7.4-4.3s5.2-2.6 7.8-3.8c5.2-2.4 10.5-4.6 15.8-6.8l.2.1.4.3.7.7c.5.5 1 .9 1.5 1.4 1 .9 2.1 1.8 3.1 2.6 2.2 1.6 4.4 3.1 6.8 4.4 4.8 2.5 10.2 3.9 15.6 3.9s10.8-1.5 15.7-3.9c4.7-2.4 9-5.6 12.8-9.2 5.2 2.1 10.4 4.4 15.6 6.7 2.6 1.2 5.3 2.4 7.8 3.7 2.6 1.3 5.1 2.6 7.4 4.2 2.3 1.6 4.5 3.5 6 5.8s2.2 5 2.4 7.9c.3 2.9.6 5.8.9 8.6l.7 8.1-12.5 1.4zm-100.5-7.3-.3-1.1-.4-1c-.9-2.8-2.3-5.4-3.8-7.9-1.6-2.5-3.4-4.8-5.5-6.8s-4.4-3.9-7-5.1c1.2.8 2.3 1.7 3.4 2.6 1.1.9 2.1 1.9 3.1 3 1.9 2.1 3.7 4.4 5.2 6.8.4.6.7 1.2 1.1 1.8.4.6.7 1.2 1 1.9.3.6.7 1.3 1 1.9.3.7.6 1.3.9 2l.4 1 .4 1 .7 2c.5 1.4.8 2.8 1.3 4.1-.3-1.4-.5-2.9-.9-4.3l-.6-1.9zm92.9-9.9c-1.5 2.5-2.9 5.1-3.8 7.9l-.4 1-.3 1.1-.6 2.1c-.3 1.4-.6 2.8-.9 4.3.5-1.4.8-2.8 1.3-4.1l.7-2 .4-1 .4-1c.3-.6.6-1.3.9-2 .3-.6.6-1.3 1-1.9.3-.6.6-1.3 1-1.9.4-.6.7-1.2 1.1-1.8 1.5-2.4 3.3-4.7 5.2-6.8.9-1.1 2-2.1 3.1-3 1.1-1 2.2-1.9 3.4-2.6-2.6 1.3-4.9 3.1-7 5.1-2.1 1.8-3.9 4.2-5.5 6.6z" fill="#852150" stroke-width="none" opacity="1" stroke="none"></path></g><g id="svga-group-head" transform="matrix(1.0000000000000002,-1.457167719820518e-16,1.457167719820518e-16,1.0000000000000002,-4.263256414560601e-14,0)"><g id="svga-group-ears-left-move" transform="matrix(1,0,0,1,0,0)"><g id="svga-group-ears-left"><path id="SvgjsPath11776" d="M65.3 102.4s-1.6-4.3-3.2-7-4-6.4-5.5-7.4-2.6-.5-2.2 2c.5 2.5 2.3 10.7 2.8 13.2s1.7 7.9 3.2 11.5c1.5 3.5 2.3 5.2 3.7.5 1.5-4.7 2.3-9.8 1.2-12.8z" fill="#f3d4cf" stroke-width="none" opacity="1" stroke="none"></path><path id="SvgjsPath11777" d="M69.1 106.8c0 1.5-.8 6.7-2.1 10-1.2 1.1-4.4 2-4.5 2s-.2 0-.3-.1c-.4-.2-.7-.6-.9-.9s-.4-.7-.5-1c-.3-.7-.6-1.3-.9-2-.5-1.4-1-2.8-1.4-4.3-.8-2.9-1.4-5.9-1.9-8.8-.6-2.9-1.1-5.9-1.8-8.8l-.5-2.2c-.2-.7-.4-1.5-.2-2.4.1-.4.3-.9.5-1.1.3-.2.6-.3.9-.2.6.1 6.4.8 6.9 1.2 3.2 1.3 6.8 8 6.7 18.6zm-7.6-11.9c-.7-1.1-1.5-2.2-2.3-3.3-.8-1.1-1.5-2.1-2.4-2.9-.4-.4-.9-.7-1.3-.8-.4-.1-.8.1-.9.6-.1.6 0 1.3.1 2s.3 1.5.4 2.2c.6 2.9 1.3 5.8 2 8.7.7 2.9 1.4 5.8 2.2 8.6.4 1.4.9 2.8 1.4 4.1.3.6.5 1.3.8 1.9.1.3.3.6.4.8.1.2.3.4.4.5.1 0 .1 0 .3-.1.1-.1.1-.1.2-.3.1-.1.1-.2.2-.4.3-.5.5-1.2.7-1.8.4-1.3.8-2.6 1.1-3.9.3-1.3.6-2.7.8-4.1.1-1.4.1-3-.4-4.3-1-2.7-2.2-5.3-3.7-7.5z" fill="#e4b3ab" stroke-width="none" opacity="1" stroke="none"></path><path id="SvgjsPath11778" d="M55.1 90.7c3 3.3 5.4 8.9 5.8 14.1 0 .4-.3.4-.4.1-.1-.5-.2-1-.3-1.4-.3-.7-.7-.8-1.3-.2 0 .4.1.8.2 1.2.1.5.3 1.1.5 1.6.5 1.2 1.1 2.2 1.7 3.3.1.2 0 .6-.2.4-1.4-1.2-2.9-4.5-2.8-6.8 0-.7.2-1.4.8-1.4.3 0 .6.1.8.4-1.1-4.1-2.5-7.5-4.9-10.9-.2-.3-.1-.6.1-.4z" fill="#d4958a" stroke-width="none" opacity="1" stroke="none"></path></g></g><g id="svga-group-ears-right-move" transform="matrix(1,0,0,1,0,0)"><g id="svga-group-ears-right"><path id="SvgjsPath11779" d="M134.7 102.4s1.6-4.3 3.2-7 4-6.4 5.5-7.4 2.6-.4 2.1 2.1-2.3 10.7-2.8 13.2-1.7 7.9-3.2 11.5c-1.5 3.5-2.3 5.2-3.7.5-1.4-4.8-2.2-9.9-1.1-12.9z" fill="#f3d4cf" stroke-width="none" opacity="1" stroke="none"></path><path id="SvgjsPath11780" d="M137.6 88.2c.5-.4 6.3-1.1 6.9-1.2.3 0 .6 0 .9.2.3.2.5.6.5 1.1.1.9-.1 1.7-.2 2.4l-.5 2.2c-.7 2.9-1.2 5.8-1.8 8.8-.5 2.9-1.1 5.9-1.9 8.8-.4 1.4-.8 2.9-1.4 4.3-.3.7-.5 1.4-.9 2-.2.3-.3.7-.5 1s-.5.7-.9.9c-.1 0-.2.1-.3.1s-3.3-.9-4.5-2c-1.3-3.3-2-8.5-2.1-10-.1-10.6 3.5-17.3 6.7-18.6zm-2.9 14.2c-.5 1.4-.5 2.9-.4 4.3s.4 2.8.8 4.1c.3 1.3.7 2.6 1.1 3.9.2.6.4 1.3.7 1.8.1.1.1.3.2.4.1.1.1.2.2.3.1.1.2.2.3.1s.2-.2.4-.5c.2-.2.3-.5.4-.8.3-.6.6-1.3.8-1.9.5-1.3 1-2.7 1.4-4.1.8-2.8 1.5-5.7 2.2-8.6s1.4-5.8 2-8.7c.1-.7.3-1.5.4-2.2.1-.7.2-1.5.1-2-.1-.6-.5-.7-.9-.6s-.9.4-1.3.8c-.8.8-1.6 1.9-2.4 2.9-.8 1.1-1.5 2.2-2.3 3.3-1.4 2.2-2.6 4.8-3.7 7.5z" fill="#e4b3ab" stroke-width="none" opacity="1" stroke="none"></path><path id="SvgjsPath11781" d="M144.9 90.7c-3 3.3-5.4 8.9-5.8 14.1 0 .4.3.4.4.1.1-.5.2-1 .3-1.4.3-.7.7-.8 1.3-.2 0 .4-.1.8-.2 1.2-.1.5-.3 1.1-.5 1.6-.5 1.2-1.1 2.2-1.7 3.3-.1.2 0 .6.2.4 1.4-1.2 2.9-4.5 2.8-6.8 0-.7-.2-1.4-.8-1.4-.3 0-.6.1-.8.4 1.1-4.1 2.5-7.5 4.9-10.9.2-.3.1-.6-.1-.4z" fill="#d4958a" stroke-width="none" opacity="1" stroke="none"></path></g></g><g id="svga-group-faceshape-wrap"><g id="svga-group-faceshape-single"><path id="SvgjsPath12190" d="M141.01 88.42c0 30.3-18.94 65.15-41.04 65.15S58.96 118.7 58.96 88.4s18.94-47 41.04-47 41.01 16.62 41.01 47.02z" fill="#f3d4cf" stroke-width="none"></path><path id="SvgjsPath12191" d="M100 41.3c-22.1 0-41.1 16.7-41.1 47s19 65.5 41.1 65.5 41.1-35.2 41.1-65.5-19-47-41.1-47zm28.2 13.6.8.8c.3.3.5.6.8.9.3.3.5.6.8.9l.7.9c.2.3.5.6.7.9l.7 1 .3.5.3.5c.4.7.9 1.3 1.2 2l.6 1c.2.3.4.7.5 1l.5 1.1.5 1.1c.2.4.3.7.5 1.1l.4 1.1c2.3 5.9 3.2 12.4 3.3 18.7 0 6.4-.9 12.8-2.6 18.9-.8 3.1-1.9 6.1-3.1 9-1.2 2.9-2.5 5.8-4 8.6s-3.1 5.5-4.8 8.1c-.9 1.3-1.8 2.6-2.7 3.8-.9 1.2-1.9 2.4-3 3.6-2 2.3-4.3 4.4-6.7 6.3-2.4 1.8-5 3.3-7.8 4.3-1.4.5-2.8.9-4.3 1-1.5.2-2.9.2-4.4.1-3-.2-5.9-1.2-8.6-2.6-2.7-1.4-5.3-3.3-7.6-5.4-2.3-2.1-4.4-4.5-6.3-7.1s-3.6-5.3-5-8.1c-1.5-2.8-2.8-5.7-3.9-8.7-.6-1.5-1.1-3-1.6-4.5s-.9-3-1.3-4.6c-.8-3.1-1.4-6.2-1.8-9.3-.4-3.1-.7-6.3-.8-9.4 0-1.6 0-3.1.1-4.7 0-.8.1-1.6.1-2.3l.2-2.3c.3-3.1.9-6.2 1.7-9.1.8-3 1.8-5.9 3.2-8.6.2-.4.3-.7.5-1l.5-1c.4-.7.8-1.3 1.2-2 .4-.6.8-1.3 1.3-1.9l.7-.9.3-.5.4-.4c1.9-2.4 4.1-4.5 6.5-6.3s5-3.3 7.8-4.5 5.7-2 8.6-2.5c.7-.2 1.5-.2 2.2-.3.4-.1.8-.1 1.1-.1l1.1-.1c.8 0 1.5-.1 2.3-.1H102.6l1.1.1c.4 0 .8.1 1.1.1.4 0 .8.1 1.1.1l1.1.2.6.1.6.1 1.1.2c.4.1.7.2 1.1.3s.7.2 1.1.3c1.4.4 2.9.9 4.3 1.5s2.8 1.2 4.1 2c2.7 1.5 5.2 3.3 7.4 5.4l.4.4.5.3z" fill="#c5796d" stroke-width="none" opacity="1"></path></g></g><g id="svga-group-mouth-single-move" transform="matrix(1,0,0,1,0,0)"><g id="svga-group-mouth-single"><path id="SvgjsPath11862" d="M90 128.1s2 2.6 4 3.8 9.4 1.3 13.4-.2 7.5-6.6 8.1-7.8c0 0-2.9 1.9-7.1 1.5-4.3-.3-13.7.8-15.6 1.6s-2.8 1.1-2.8 1.1z" fill="#da7c87" stroke-width="none" opacity="1" transform="translate(0 3)" stroke="none"></path><path id="SvgjsPath11863" d="M117.2 121.6c-.5-.4-1-.6-1.6-.4-.4.1-.4.7-.1.8.1.1.2.1.3.2l-.6.6c-.7.8-2.3 2.2-5.3.8-3-1.4-5.1-1.8-7.1-.5s-2.7.9-4.6.2c-1.9-.6-4.3.4-5.5 1.7-1.2 1.3-2.2 2.6-4.1 2s-.8.5-.8.5c.2.1 1.5 1.1 2.5 1.4 1.1.2 2.1-.5 4.5-1.2s8.1-1.2 11.9-1.1c5.4.2 6.8-.6 8.3-1.8.7-.6 1.2-1.1 1.5-1.6.1.2.2.4.4.5.3.2.8.1.9-.3.2-.8-.2-1.4-.6-1.8z" fill="#d26d79" stroke-width="none" opacity="1" transform="translate(0 3)" stroke="none"></path><path id="SvgjsPath11864" d="M95.7 129.5c3.4 0 7.4.1 10.8-.9.5-.1.5-.8 0-1-3.4-1-7.7-.1-10.9 1.2-.3.2-.3.7.1.7z" fill="#e28c96" stroke-width="none" opacity="1" transform="translate(0 3)" stroke="none"></path></g></g><g id="svga-group-eyes-left-move" transform="matrix(1,0,0,1,0,0)"><g id="svga-group-eyes-left"><g id="svga-group-eyesback-left"><path id="SvgjsPath12353" d="M92.1 98.1s-3.5 2.7-5.9 3.2c-2.4.5-6.1.8-9.4-.1-3.2-1-4.9-2.8-4.9-2.8s1.4-2.6 3.4-3.6 4.1-2.6 8.6-1.9 7.3 3.7 8.2 5.2z" fill="#ffffff" stroke-width="none" opacity="1"></path></g><g id="svga-group-eyesiriswrapper-left" transform="matrix(1,0,0,1,0,0)"><g id="svga-group-eyesiriscontrol-left" transform="matrix(1,0,0,1,0,0)"><g id="svga-group-eyesiris-left"><path id="SvgjsPath11808" d="M82 91c3 0 5.4 2.4 5.4 5.4s-2.4 5.4-5.4 5.4-5.4-2.4-5.4-5.4S79 91 82 91z" fill="#681711" stroke-width="none" opacity="1"></path><path id="SvgjsPath11809" d="M82 91.3c2.8 0 5.2 2.3 5.2 5.2s-2.3 5.2-5.2 5.2-5.2-2.3-5.2-5.2 2.3-5.2 5.2-5.2m0-.5c-3.1 0-5.7 2.6-5.7 5.7s2.6 5.7 5.7 5.7 5.7-2.6 5.7-5.7c0-3.2-2.6-5.7-5.7-5.7z" fill="#490500" stroke-width="none" opacity="1"></path><path id="SvgjsPath11810" d="M79.1 98c0 1.3.5 2.5 1.4 3.4.5.2 1 .2 1.5.2 2.8 0 5.2-2.3 5.2-5.2 0-1.1-.3-2-.9-2.8-.7-.4-1.5-.6-2.3-.6-2.7 0-4.9 2.2-4.9 5z" fill="#77251f" stroke-width="none" opacity="1"></path><path id="SvgjsPath11811" d="M82 93.6c1.5 0 2.8 1.3 2.8 2.8s-1.3 2.8-2.8 2.8-2.8-1.3-2.8-2.8 1.3-2.8 2.8-2.8z" fill="#000000" stroke-width="none" opacity="1"></path><path id="SvgjsPath11812" d="M80.7 93.6c.5 0 1 .4 1 1s-.4 1-1 1-1-.4-1-1 .5-1 1-1zm3.2 4.4c.2 0 .4.2.4.4s-.2.4-.4.4-.4-.2-.4-.4.2-.4.4-.4z" fill="#ffffff" stroke-width="none" opacity="1"></path><path id="SvgjsPath11813" d="M82 101.6c.3 0 .5 0 .8-.1-.2 0-.3-.2-.4-.4-.1.3-.3.4-.4.5-.3 0-.5-.2-.5-.4-.1.2-.4.3-.6.2-.2-.1-.4-.3-.4-.5-.2.2-.4.2-.6.1s-.3-.3-.3-.5c-.2.2-.5.1-.7 0s-.2-.5-.1-.7c-.2.2-.5.1-.7 0-.2-.2-.2-.5 0-.7-.3.1-.5-.1-.7-.3.8 1.7 2.6 2.8 4.6 2.8zm-4.7-3s0-.1 0 0c0-.1 0 0 0 0zm9 .7c-.1.1-.3.2-.5.2.1.4-.3.8-.8.8.1.2 0 .4-.2.6-.2.1-.4.1-.6 0 0 .2-.1.4-.3.5-.2.1-.5 0-.6-.2 0 .2-.1.4-.2.5 1.3-.5 2.5-1.3 3.2-2.4zm-1.9-7.2c.3-.1.6.2.5.5.3-.2.8.3.6.6.2-.1.4 0 .4.2.1.2.1.4-.1.5.2 0 .5.1.6.3s.1.5-.1.7c.2 0 .4.2.5.4.1.2 0 .5-.2.6.2.1.3.3.3.5s-.1.4-.3.5c.2.1.3.3.3.5s-.2.4-.4.4c.3.2.1.8-.2.8.1.1.1.3.1.5.5-.8.7-1.7.7-2.6 0-2.1-1.2-3.8-2.9-4.7.1 0 .2.2.2.3zm-.6-.3c.1-.1.2-.1.3 0-.5-.2-1-.4-1.5-.4v.1c.4-.2.9 0 1.2.3zm-5.6 7.1c.2 0 .3-.1.4-.2.2-.1.3-.2.5-.3v-.1c-.2.1-.3.1-.4.2-.2.2-.4.3-.5.4zM77 97.4c.1 0 .3 0 .4-.1.2 0 .3-.1.5-.1.1 0 0-.1 0-.1-.2 0-.3 0-.5.1-.1 0-.3 0-.4.2 0-.1 0 0 0 0zm.5-2.5c.4.2.8.3 1.2.4 0 0 .1 0 0-.1-.3-.2-.8-.3-1.2-.3 0-.1 0 0 0 0zm.2-.8c.2.2.4.3.7.4 0 0 .1 0 0-.1-.2-.1-.5-.2-.7-.3 0-.1-.1 0 0 0zm3.8 6.7c.1-.3.2-.7.2-1 0 0-.1-.1-.1 0-.1.3-.1.7-.1 1-.1 0 0 0 0 0zm3.5-4.1c.3.1.7.1 1.1.2v-.1c-.3 0-.7-.1-1.1-.1zm.3-.7c.3 0 .7.1 1 0v-.1c-.4 0-.7 0-1 .1zm.1-2.7c-.3.2-.7.5-.9.8 0 0 0 .1 0 0 .3-.3.7-.5.9-.8.1 0 .1-.1 0 0zM82.5 92c-.1.3-.2.5-.2.8 0 .1.1.1.1 0 .1-.3.2-.5.1-.8.1-.1.1-.1 0 0zm-2.9.3c.1.2.2.5.3.7h.1c-.1-.3-.2-.5-.4-.7 0-.1 0-.1 0 0z" fill="#490500" stroke-width="none" opacity="1"></path></g></g></g><g id="svga-group-eyesfront-left"><path id="SvgjsPath12361" d="M70.7 98c0 6.9 4.9 12.5 11 12.5s11-5.6 11-12.5-4.9-12.5-11-12.5-11 5.6-11 12.5zm1.2.4s1.4-2.6 3.4-3.6 4.1-2.6 8.6-1.9c4.5.7 7.2 3.6 8.2 5.1 0 0-3.5 2.7-5.9 3.2-2.4.5-6.1.8-9.4-.1-3.2-.9-4.9-2.7-4.9-2.7z" fill="#f3d4cf" stroke-width="none" opacity="1"></path><path id="SvgjsPath12362" d="M91 96.6s-2.7-3.5-7.8-3.9c-5.1-.5-9.4 2.8-11.3 5.7 0 0-2 .5-3.3-.7 0 0 2 .1 4.3-2.1 2.1-2.1 5.6-4 9.8-3.4 4.5.5 6.4 1.8 8.3 4.4z" fill="#e4b3ab" stroke-width="none" opacity="1"></path><path id="SvgjsPath12363" d="M69.9 95.9c-.1-.1 0-.2.1-.2 1.2.7 2.2.7 3.3.2.4-.5.9-.9 1.4-1.3-1 0-2-.4-2.6-1.2-.1-.1.1-.2.1-.1.9.7 1.9 1.1 2.9 1 .6-.4 1.1-.7 1.8-1-.6-.3-1.1-.8-1.3-1.5 0-.1.1-.2.2-.1.4.6.9 1.1 1.6 1.4.7-.3 1.4-.5 2.1-.6-.1-.1-.2-.1-.2-.2-.2-.3-.5-.7-.5-1.1 0-.1.2-.2.3-.1.2.3.2.6.4.9.1.2.2.3.4.4 4.8-.7 10.1 1.5 12.6 6 .1.2-.2.4-.3.2-2.3-3.5-6.2-5.7-10.5-5.5-3.9.2-7.1 2.4-9.6 5.4 6.2 4.1 13.4 4 19.5-.2.1-.1.3.1.1.2-3.1 2.8-7.2 4-11.1 3.8-.1.1-.2.3-.2.4-.1.2-.1.3-.2.5-.1.1-.2.1-.2-.1 0-.3.1-.6.3-.9-.8-.1-1.6-.2-2.4-.4-.1.1-.3.2-.4.4-.1.2-.2.4-.4.6-.1.1-.2 0-.2-.1 0-.3.2-.5.3-.7.1-.1.2-.2.2-.3-.6-.2-1.3-.4-1.9-.7-.2.1-.4.2-.6.4l-.6.6c-.1.1-.2 0-.2-.1.2-.4.6-.8 1.1-1-.6-.3-1.2-.6-1.7-1-.2.1-.4.1-.6.3-.3.2-.5.4-.8.6-.1.1-.2 0-.2-.1.2-.5.8-.8 1.3-1-.4-.3-.9-.6-1.3-1l-.1.1c-.1.1-.3 0-.2-.2 0 0 0-.1.1-.1 0-.1 0-.1.1-.2.3-.6.6-1.2 1-1.8-1 .4-2.1.1-2.9-.6z" fill="#000000" stroke-width="none" opacity="1"></path></g></g></g><g id="svga-group-eyes-right-move" transform="matrix(1,0,0,1,0,0)"><g id="svga-group-eyes-right"><g id="svga-group-eyesback-right"><path id="SvgjsPath12354" d="M107.9 98.1s3.5 2.7 5.9 3.2c2.4.5 6.1.8 9.4-.1 3.2-1 4.9-2.8 4.9-2.8s-1.4-2.6-3.4-3.6-4.1-2.6-8.6-1.9-7.3 3.7-8.2 5.2z" fill="#ffffff" stroke-width="none" opacity="1"></path></g><g id="svga-group-eyesiriswrapper-right" transform="matrix(1,0,0,1,0,0)"><g id="svga-group-eyesiriscontrol-right" transform="matrix(1,0,0,1,0,0)"><g id="svga-group-eyesiris-right"><path id="SvgjsPath11814" d="M118 91c3 0 5.4 2.4 5.4 5.4s-2.4 5.4-5.4 5.4-5.4-2.4-5.4-5.4S115 91 118 91z" fill="#681711" stroke-width="none" opacity="1"></path><path id="SvgjsPath11815" d="M118 91.3c2.8 0 5.2 2.3 5.2 5.2s-2.3 5.2-5.2 5.2-5.2-2.3-5.2-5.2 2.4-5.2 5.2-5.2m0-.5c-3.1 0-5.7 2.6-5.7 5.7s2.6 5.7 5.7 5.7 5.7-2.6 5.7-5.7c0-3.2-2.5-5.7-5.7-5.7z" fill="#490500" stroke-width="none" opacity="1"></path><path id="SvgjsPath11816" d="M115.1 98c0 1.3.5 2.5 1.4 3.4.5.2 1 .2 1.5.2 2.8 0 5.2-2.3 5.2-5.2 0-1.1-.3-2-.9-2.8-.7-.3-1.4-.6-2.3-.6-2.7 0-4.9 2.2-4.9 5z" fill="#77251f" stroke-width="none" opacity="1"></path><path id="SvgjsPath11817" d="M118 93.6c1.5 0 2.8 1.3 2.8 2.8s-1.3 2.8-2.8 2.8-2.8-1.3-2.8-2.8 1.3-2.8 2.8-2.8z" fill="#000000" stroke-width="none" opacity="1"></path><path id="SvgjsPath11818" d="M116.8 93.6c.5 0 1 .4 1 1s-.4 1-1 1-1-.4-1-1 .4-1 1-1zM120 98c.2 0 .4.2.4.4s-.2.4-.4.4-.4-.2-.4-.4.2-.4.4-.4z" fill="#ffffff" stroke-width="none" opacity="1"></path><path id="SvgjsPath11819" d="M118 101.6c.3 0 .5 0 .8-.1-.2 0-.3-.2-.4-.4 0 .3-.2.4-.4.5-.3 0-.5-.2-.5-.4-.1.2-.4.3-.6.2-.2-.1-.4-.3-.4-.5-.2.2-.4.2-.6.1s-.3-.3-.3-.5c-.2.2-.5.1-.7 0s-.2-.5-.1-.7c-.2.2-.5.1-.7 0-.2-.2-.2-.5 0-.7-.2 0-.5-.1-.7-.3.9 1.7 2.6 2.8 4.6 2.8zm-4.7-3s0-.1 0 0c0-.1 0 0 0 0zm9 .7c-.1.1-.3.2-.5.2.1.4-.3.8-.8.8.1.2 0 .4-.2.6-.2.1-.4.1-.6 0 0 .2-.1.4-.3.5-.2.1-.5 0-.6-.2 0 .2-.1.4-.2.5 1.4-.5 2.5-1.3 3.2-2.4zm-1.9-7.2c.3-.1.6.2.5.5.3-.2.8.3.6.6.2-.1.4 0 .4.2.1.2.1.4-.1.5.2 0 .5.1.6.3s.1.5-.1.7c.2 0 .4.2.5.4.1.2 0 .5-.2.6.2.1.3.3.3.5s-.1.4-.3.5c.2.1.3.3.3.5s-.2.4-.4.4c.3.2.1.8-.2.8.1.1.1.3.1.5.5-.8.7-1.7.7-2.6 0-2.1-1.2-3.8-2.9-4.7.2 0 .2.2.2.3zm-.5-.3c.1-.1.2-.1.3 0-.5-.2-1-.4-1.5-.4v.1c.4-.2.9 0 1.2.3zm-5.6 7.1c.2 0 .3-.1.4-.2.2-.1.3-.2.5-.3v-.1c-.2.1-.3.1-.4.2-.2.2-.4.3-.5.4-.1 0 0 0 0 0zm-1.2-1.5c.1 0 .3 0 .4-.1.2 0 .3-.1.5-.1.1 0 0-.1 0-.1-.2 0-.3 0-.5.1-.2 0-.3 0-.4.2-.1-.1-.1 0 0 0zm.5-2.5c.4.2.8.3 1.2.4 0 0 .1 0 0-.1-.4-.2-.8-.3-1.2-.3 0-.1-.1 0 0 0zm.1-.8c.2.2.4.3.7.4 0 0 .1 0 0-.1s-.4-.2-.7-.3c0-.1 0 0 0 0zm3.8 6.7c.1-.3.2-.7.2-1 0 0-.1-.1-.1 0 0 .3-.1.7-.1 1zm3.6-4.1c.3.1.7.1 1.1.2v-.1c-.4 0-.8-.1-1.1-.1zm.2-.7c.3 0 .7.1 1 0v-.1c-.3 0-.6 0-1 .1zm.2-2.7c-.3.2-.7.5-.9.8 0 0 0 .1 0 0 .3-.3.6-.5.9-.8.1 0 0-.1 0 0zm-2.9-1.3c-.1.3-.2.5-.2.8 0 .1.1.1.1 0 .1-.3.1-.5.1-.8.1-.1 0-.1 0 0zm-2.9.3c.1.2.2.5.3.7h.1c-.1-.3-.3-.5-.4-.7 0-.1 0-.1 0 0z" fill="#490500" stroke-width="none" opacity="1"></path></g></g></g><g id="svga-group-eyesfront-right"><path id="SvgjsPath12364" d="M118.3 85.5c-6.1 0-11 5.6-11 12.5s4.9 12.5 11 12.5 11-5.6 11-12.5-5-12.5-11-12.5zm4.9 15.7c-3.2 1-7 .6-9.4.1-2.4-.5-5.9-3.2-5.9-3.2.9-1.5 3.6-4.4 8.2-5.1 4.5-.7 6.7.9 8.6 1.9 2 1 3.4 3.6 3.4 3.6s-1.7 1.7-4.9 2.7z" fill="#f3d4cf" stroke-width="none" opacity="1"></path><path id="SvgjsPath12367" d="M109 96.6s2.7-3.5 7.8-3.9c5.1-.5 9.4 2.8 11.3 5.7 0 0 2 .5 3.3-.7 0 0-2 .1-4.3-2.1-2.1-2.1-5.6-4-9.8-3.4-4.5.5-6.4 1.8-8.3 4.4z" fill="#e4b3ab" stroke-width="none" opacity="1"></path><path id="SvgjsPath12368" d="M130.1 95.9c.1-.1 0-.2-.1-.2-1.2.7-2.2.7-3.3.2-.4-.5-.9-.9-1.4-1.3 1 0 2-.4 2.6-1.2.1-.1-.1-.2-.1-.1-.9.7-1.9 1.1-2.9 1-.6-.4-1.1-.7-1.8-1 .6-.3 1.1-.8 1.3-1.5 0-.1-.1-.2-.2-.1-.4.6-.9 1.1-1.6 1.4-.7-.3-1.4-.5-2.1-.6.1-.1.2-.1.2-.2.2-.3.5-.7.5-1.1 0-.1-.2-.2-.3-.1-.2.3-.2.6-.4.9-.1.2-.2.3-.4.4-4.8-.7-10.1 1.5-12.6 6-.1.2.2.4.3.2 2.3-3.5 6.2-5.7 10.5-5.5 3.9.2 7.1 2.4 9.6 5.4-6.2 4.1-13.4 4-19.5-.2-.1-.1-.3.1-.1.2 3.1 2.8 7.2 4 11.1 3.8.1.1.2.3.2.4.1.2.1.3.2.5.1.1.2.1.2-.1 0-.3-.1-.6-.3-.9.8-.1 1.6-.2 2.4-.4.1.1.3.2.4.4.1.2.2.4.4.6.1.1.2 0 .2-.1 0-.3-.2-.5-.3-.7-.1-.1-.2-.2-.2-.3.6-.2 1.3-.4 1.9-.7.2.1.4.2.6.4l.6.6c.1.1.2 0 .2-.1-.2-.4-.6-.8-1.1-1 .6-.3 1.2-.6 1.7-1 .2.1.4.1.6.3.3.2.5.4.8.6.1.1.2 0 .2-.1-.2-.5-.8-.8-1.3-1 .4-.3.9-.6 1.3-1l.1.1c.1.1.3 0 .2-.2 0 0 0-.1-.1-.1 0-.1 0-.1-.1-.2-.3-.6-.6-1.2-1-1.8 1 .4 2.1.1 2.9-.6z" fill="#000000" stroke-width="none" opacity="1"></path></g></g></g><g id="svga-group-facehighlight-single"></g><g id="svga-group-eyebrows-left-move" transform="matrix(1,0,0,1,0,0)"><g id="svga-group-eyebrows-left-rotate" transform="matrix(1,0,0,1,0,0)"><g id="svga-group-eyebrows-left"><path id="SvgjsPath11888" d="M69.4 84.4c.2-.2.4-.4.7-.5v-.2c.2-.4.6-.6.9-.7.2-.1.3-.2.5-.3.5-.3 1-.6 1.5-.7h.2c.5-.2 1.1-.3 1.7-.3.9-.6 2.5-.6 3.4-.2.1 0 .1.1.1.1 1.3-.3 2.8 0 4 .3 1.7.4 3.7 1 5.1 2 .7.2 1.3.6 1.9.9 1.2.6 2.6 1.4 3.6 2.3.3.1.6.1.9.2h.1c.2-.1.4.2.2.4-.2.3-.5.5-.8.7.1.1.1.2 0 .3-1.6 2.3-5.7.4-7.3-1.5l-3.3-1.8h-.1c-1 0-2-.4-2.9-.7-1.1-.3-2.2-.5-3.3-.8-.1 0-.2-.1-.2-.2-.7.1-1.3 0-2 0-.5 0-1 0-1.5-.1-.4.2-.7.3-1.1.5-.4.2-1 .4-1.5.4l-.6.3c-.1 0-.2 0-.3-.1v-.1c-.1 0 0-.2.1-.2z" fill="#2a232b" stroke-width="none" opacity="1"></path><path id="SvgjsPath11889" d="M88.4 88.4c.8 0 1.5 0 2.3-.2.8-.2 1.5-.5 2.2-.8.2-.1.3.1.2.2-1.2 1.1-3.1 1.6-4.7 1.2-.3-.1-.3-.4 0-.4zm-1.6-.7c.8-.1 1.6 0 2.4-.1.8-.2 1.4-.6 2.1-1 .2-.1.3.1.2.3-.6.6-1.1 1.1-2 1.3s-1.8.2-2.7-.1c-.1-.1-.1-.4 0-.4zm-5-6.1c1.9.5 2.8 2.7 2.3 4.5-.1.2-.3.1-.3 0 .2-1.8-.6-3.2-2.1-4.2-.1-.2 0-.3.1-.3zm-6.6.2c2.2-.2 4.4 1.2 5.7 2.9.1.1 0 .2-.1.1-1.6-1.6-3.5-2.2-5.6-2.8-.2 0-.1-.2 0-.2zM70 83.5c1.5-1 3.5-.9 5.1-.2.1.1.1.2-.1.2-1.7-.5-3.3-.2-4.9.3-.2 0-.2-.2-.1-.3z" fill="#3a353a" stroke-width="none" opacity="1"></path><path id="SvgjsPath11890" d="M66 86.8c-.3.3.1.7.5.5 5.3-4.5 12.2-3.5 17.9-.3 2.1 1.2 4.3 3.3 6.9 3.1 1.5-.1 3.3-1.2 3.2-2.9 0-.2-.3-.3-.4-.1-.9 2.7-3.1 2.5-5.1 1.6 1.2.1 2.5-.4 3.5-1.1.2-.1 0-.3-.1-.2-1.3.7-2.7.8-4.2.8h-.1c-.2-.1-.5-.3-.7-.4.6-.3 1.1-.7 1.3-1.4.1-.2-.2-.3-.3-.1-.3.5-.8 1-1.3 1.3-.4-.2-.7-.4-1.1-.7-.7-.4-1.5-.9-2.2-1.2.4-1.2.2-2.6-.6-3.5 3.5 1 6.7 2.7 9.7 4.7.2.2.5-.2.2-.4-4.4-3.2-9.8-5.7-15.3-5.8-2 0-3.9.3-5.7 1.1-2 .9-4.4 2.6-5.6 4.6-.3.2-.4.3-.5.4zm17.3-1.2c-.5-.2-1-.5-1.5-.7-.5-1.3-1.5-2.7-2.8-3.3 1.1.1 2.2.2 3.2.5.8 1 1.2 2.1 1.1 3.5zm-4.4-1.7c-.3-.1-.7-.2-1-.2v-.2c-1-1.1-2.4-1.7-3.9-1.6 1.2-.3 2.5-.4 3.7-.4.8.4 1.6.8 2.2 1.4.6.5 1.1 1.2 1.4 1.8-.7-.3-1.5-.5-2.4-.8zm-9.2.5c.7-.7 1.5-1.3 2.5-1.7.5-.2 1-.4 1.6-.6-.1.1 0 .2.1.3 1.4.2 2.6.6 3.8 1.3-2.7-.5-5.6-.3-8 .7z" fill="#1b141c" stroke-width="none" opacity="1"></path></g></g></g><g id="svga-group-eyebrows-right-move" transform="matrix(1,0,0,1,0,0)"><g id="svga-group-eyebrows-right-rotate" transform="matrix(1,0,0,1,0,0)"><g id="svga-group-eyebrows-right"><path id="SvgjsPath11891" d="M130.6 84.4c-.2-.2-.4-.4-.7-.5v-.2c-.2-.4-.6-.6-.9-.7-.2-.1-.3-.2-.5-.3-.5-.3-1-.6-1.5-.7h-.2c-.5-.2-1.1-.3-1.7-.3-.9-.6-2.5-.6-3.4-.2-.1 0-.1.1-.1.1-1.3-.3-2.8 0-4 .3-1.7.4-3.7 1-5.1 2-.7.2-1.3.6-1.9.9-1.2.6-2.6 1.4-3.6 2.3-.3.1-.6.1-.9.2h-.1c-.2-.1-.4.2-.2.4.2.3.5.5.8.7-.1.1-.1.2 0 .3 1.6 2.3 5.7.4 7.3-1.5l3.3-1.8h.1c1 0 2-.4 2.9-.7 1.1-.3 2.2-.5 3.3-.8.1 0 .2-.1.2-.2.7.1 1.3 0 2 0 .5 0 1 0 1.5-.1.4.2.7.3 1.1.5.4.2 1 .4 1.5.4l.6.3c.1 0 .2 0 .3-.1v-.1c.1 0 0-.2-.1-.2z" fill="#2a232b" stroke-width="none" opacity="1"></path><path id="SvgjsPath11892" d="M111.6 88.4c-.8 0-1.5 0-2.3-.2-.8-.2-1.5-.5-2.2-.8-.2-.1-.3.1-.2.2 1.2 1.1 3.1 1.6 4.7 1.2.3-.1.3-.4 0-.4zm1.6-.7c-.8-.1-1.6 0-2.4-.1-.8-.2-1.4-.6-2.1-1-.2-.1-.3.1-.2.3.6.6 1.1 1.1 2 1.3s1.8.2 2.7-.1c.1-.1.1-.4 0-.4zm5-6.1c-1.9.5-2.8 2.7-2.3 4.5.1.2.3.1.3 0-.2-1.8.6-3.2 2.1-4.2.1-.2 0-.3-.1-.3zm6.6.2c-2.2-.2-4.4 1.2-5.7 2.9-.1.1 0 .2.1.1 1.6-1.6 3.5-2.2 5.6-2.8.2 0 .1-.2 0-.2zm5.2 1.7c-1.5-1-3.5-.9-5.1-.2-.1.1-.1.2.1.2 1.7-.5 3.3-.2 4.9.3.2 0 .2-.2.1-.3z" fill="#3a353a" stroke-width="none" opacity="1"></path><path id="SvgjsPath11893" d="M133.7 86.5c-1.2-1.9-3.6-3.6-5.6-4.6-1.8-.8-3.8-1.2-5.7-1.1-5.6.1-10.9 2.6-15.3 5.8-.2.2 0 .6.2.4 3-2 6.2-3.8 9.7-4.7-.8.9-1 2.3-.6 3.5-.8.4-1.5.8-2.2 1.2-.3.2-.7.4-1.1.7-.5-.3-1-.8-1.3-1.3-.1-.1-.3-.1-.3.1.2.7.7 1.1 1.3 1.4-.2.1-.5.3-.7.4h-.1c-1.5 0-2.8-.1-4.2-.8-.2-.1-.3.1-.1.2 1 .7 2.3 1.2 3.5 1.1-2 .9-4.2 1.1-5.1-1.6-.1-.2-.4-.2-.4.1-.1 1.7 1.7 2.8 3.2 2.9 2.6.2 4.8-1.9 6.9-3.1 5.7-3.2 12.6-4.2 17.9.3.3.3.8-.2.5-.5-.3-.2-.4-.3-.5-.4zm-15.9-4.4c1.1-.2 2.1-.4 3.2-.5-1.3.6-2.3 2-2.8 3.3-.5.2-1 .4-1.5.7-.1-1.4.3-2.5 1.1-3.5zm.8 2.7c.4-.7.8-1.3 1.4-1.8.7-.6 1.5-.9 2.2-1.4 1.3 0 2.5.1 3.7.4-1.5-.1-2.9.5-3.9 1.6v.2c-.3.1-.7.1-1 .2-.8.2-1.6.4-2.4.8zm3.8-1.1c1.1-.8 2.4-1.2 3.8-1.3.2 0 .2-.2.1-.3.5.2 1.1.4 1.6.6.9.4 1.7 1.1 2.5 1.7-2.5-1-5.4-1.2-8-.7z" fill="#1b141c" stroke-width="none" opacity="1"></path></g></g></g><g id="svga-group-nose-single-move" transform="matrix(1,0,0,1,0,0)"><g id="svga-group-nose-single"><path id="SvgjsPath11874" d="M97.72 89.37c-.8 3.33-.91 6.89-1.27 10.29-.38 3.64-1.08 7.4-1.03 11.06 0 .29.45.37.52.07.74-3.34.83-6.91 1.18-10.31.37-3.64 1.05-7.41.93-11.06 0-.19-.28-.24-.33-.05z" fill="#c5796d" stroke-width="none" opacity="1" transform="translate(0 2)" stroke="none"></path><path id="SvgjsPath11875" d="M94.71 108.8c-.98 1.31-1.8 2.73-2.52 4.2-.46.95-1.04 2.07-.73 3.16.5 1.8 2.79 2.36 4.28 1.51.44-.26.24-.95-.26-.95-.87-.01-1.89.27-2.58-.47-.84-.89-.01-2.5.36-3.4.55-1.32 1.22-2.59 1.74-3.92.07-.19-.19-.26-.29-.13z" fill="#c5796d" stroke-width="none" opacity="1" transform="translate(0 2)" stroke="none"></path><path id="SvgjsPath11876" d="M94.57 116.21c2.7-.2 3.21 3.2 5.78 3.28 2.2.07 2.37-3.24 4.46-3.14.24.01.32-.33.12-.45-2.37-1.4-2.81 2.72-4.99 2.46-1.29-.15-2.21-2.05-3.37-2.6-.79-.37-1.36-.34-2.13.01-.19.11-.09.46.13.44z" fill="#c5796d" stroke-width="none" opacity="1" transform="translate(0 2)" stroke="none"></path><path id="SvgjsPath11877" d="M104.07 117.75c1.78.4 3.85-.15 4.27-2.13.21-.99-.12-1.97-.64-2.81-.84-1.37-1.93-2.53-2.73-3.95-.13-.24-.47-.12-.48.13-.1 1.59 1.08 2.69 1.92 3.92.78 1.13 1.45 2.69.14 3.81-.6.51-1.74.42-2.48.56-.24.05-.23.42 0 .47z" fill="#c5796d" stroke-width="none" opacity="1" transform="translate(0 2)" stroke="none"></path><path id="SvgjsPath11878" d="M102.32 112.41c-.39-.7-1.4-.81-1.96-.25-.05.05-.23.28-.28.34-.06.08-.19.25-.21.28-.06.1-.12.2-.17.3l-.11.26c0-.01-.01.01-.03.05-.06.06-.12.13-.17.19-.17.18-.34.36-.48.57-.4.63-.08 1.35.46 1.75.83.62 2.03.12 2.61-.58.7-.84.89-1.92.34-2.91z" fill="#fbe5e2" stroke-width="none" opacity="1" transform="translate(0 2)" stroke="none"></path></g></g><g id="svga-group-hair-front"><path id="SvgjsPath12044" d="M145.8 79.1c-6.6-37.7-19.9-40.4-23.5-41.7-3.3-1.2-11.7-2.2-22 3-3-4-17.7-4.4-21.3-3s-18.8 6.2-24.8 44.9c-4.5 29.3.6 83.5.6 83.5 9.3 4.5 21.5 5.3 21.5 5.3s-2.7-16.4-6.5-42.9.4-47.5 3.5-57.8C76.4 60 80 55.6 84.6 54.6c4.3-1 14.4 2.9 16 3.5v.1h.2v-.1c1.6-.6 11.7-4.5 16-3.5 4.6 1 7.2 6.3 10.3 16.7 3.1 10.3 8.3 30.4 4.4 56.9-3.9 26.5-6.5 42.9-6.5 42.9s12.2-.8 21.5-5.3c-.1 0 4.3-57.6-.7-86.7z" fill="#641333" stroke-width="none" opacity="1" stroke="none"></path><path id="SvgjsPath12045" d="M131.4 128.6c1-5.2 2.1-14 2.5-28.2.7-26.4-10.7-47.2-14.3-50.2s-19 7.5-19 7.5-11.5-6.6-16.2-7.5c-4.7-.9-8.2 2.1-11.6 12.3s-5.5 23-5.4 39.1c.1 11.2 1.7 22.5 2.6 28.2-.1-.6-.2-1.1-.2-1.7-3.9-26.5.4-47.5 3.5-57.8 3.1-10.4 6.7-14.8 11.3-15.8 4.3-1 14.4 2.9 16 3.5v.1h.2V58c1.6-.6 11.7-4.5 16-3.5 4.6 1 7.2 6.3 10.3 16.7 3.1 10.3 8.3 30.4 4.4 56.9-.1.3-.1.4-.1.5zM99.5 54s-9-6.2-14.3-7.4S73.9 50.3 72 58.4c0 0-.2-4.2 4.6-10.8 4.9-6.8 15.3.2 22.9 6.4zm1.4.9s.2-8.5 0-13.2c0 .1-.9 6.5 0 13.2zm3.7-3.2s6.5-5.1 12-5.8c5.5-.7 10.8 10.8 10.8 10.8s-6.2-9.7-9.9-9.5c-3.7.3-12.9 4.5-12.9 4.5zM133 73.6s4.9 21.7 2.5 46.2-6 47.8-6 47.8 5.8-22.6 7.6-45.3c1.9-22.6-4.1-48.7-4.1-48.7zm7.6-.7s3.2 30.5 2.8 50.6c-.5 20.1-1.9 39.5-1.9 39.5s2.8-23.8 3-43.9c.3-20-3.9-46.2-3.9-46.2zM64.9 92.6s-.5 49 7.4 74.6c0 0-5.8-13.6-7.6-39.3-1.9-25.6.2-35.3.2-35.3zm-.2 74.1s-5.5-23.6-6-45.5c0 0-3 22.9 6 45.5zm8-121.5S57.6 64.5 57.4 93.5c0 0-3.2-27.6 15.3-48.3z" fill="#550826" stroke-width="none" opacity="1" stroke="none"></path><path id="SvgjsPath12046" d="M101.8 54.8s9.9-7.7 15.7-7.5c5.8.2 12 12.9 15.9 29.5s1.3 65-4.9 89.8c0 0 5.4-39.1 5.7-52.8.3-13.7.5-30-4.7-47.4-5.2-17.3-10.6-17.6-12.7-17.9-2-.2-15 6.3-15 6.3zm-3.3.8s-8.5-9.3-17.1-8c-8.6 1.2-13.5 24-15.3 41.4-1.8 17.3 4.4 66 8.3 79.5 0 0-4.4-32.1-5.7-44-1.3-11.9-2.1-33.7.3-46.1s6.7-24.1 9.6-27.4c2.8-3.5 10-2.9 19.9 4.6zM61.4 77.3s-4.7 39.6 4.9 87c.1 0-7.2-52-4.9-87zM136 75s7.5 32.4.3 89.3c0 0 9.8-56.7-.3-89.3zm-25.1-30.8s4.7-2.7 7.8-2.1c6 1.3 7 5.7 7 5.7s-2.9-7-14.8-3.6z" fill="#732142" stroke-width="none" opacity="1" stroke="none"></path></g><g id="svga-group-glasses-single-move" transform="matrix(1,0,0,1,0,0)"><g id="svga-group-glasses-single" transform="matrix(1.1500006000000005,0,0,1.1500006000000005,-15.005306564870494,-14.965557641837364)"><path id="SvgjsPath11978" d="M74.11 89.07c-2.58.84-5.8 4.34-5.23 11.22.57 6.89 4.46 9.5 8.1 10.84 3.63 1.34 9.18 1.21 13.33-2.55 4.14-3.76 5.1-8.1 4.78-10.84-.32-2.74-2.74-7.01-6.69-8.48-3.96-1.46-8.04-2.23-14.29-.19z" fill="url(#SvgjsLinearGradient11979)" opacity="1"></path><path id="SvgjsPath11984" d="M125.89 89.07c2.58.84 5.8 4.34 5.23 11.22-.57 6.89-4.46 9.5-8.1 10.84-3.63 1.34-9.18 1.21-13.33-2.55-4.14-3.76-5.1-8.1-4.78-10.84.32-2.74 2.74-7.01 6.69-8.48 3.96-1.46 8.04-2.23 14.29-.19z" fill="url(#SvgjsLinearGradient11985)" opacity="1"></path><path id="SvgjsPath11990" d="M118.3 112.69c-4.3 0-8.55-2.29-11.35-6.13-3.22-4.4-3.93-9.13-4.01-9.77.29-.2 1.45-1.07 1.28-2.19-.18-1.13-2.93-1.22-3.77-1.22h-.91c-.84 0-3.59.09-3.77 1.22-.17 1.13.99 2 1.28 2.19-.08.63-.8 5.37-4.01 9.77-2.8 3.84-7.05 6.13-11.35 6.13-2.08 0-4.19-.51-6.28-1.51-6.97-3.36-7.3-9.16-7.51-13.01-.02-.34-.04-.67-.06-.98-.25-3.49-2.39-3.85-2.95-3.88v-3.54c.17.01.34.01.52.01 2.49 0 4.8-.67 7.23-1.37 2.65-.77 5.4-1.56 8.64-1.56.5 0 1.01.02 1.53.06 4.6.36 6.9 1.86 8.42 2.85.49.32.92.6 1.32.78.62.27 1.45.4 2.62.4.88 0 1.83-.07 2.75-.14.61-.05 1.2-.09 1.75-.11h.65c.54.02 1.14.07 1.75.11.92.07 1.86.14 2.75.14 1.17 0 2.01-.13 2.62-.4.4-.18.83-.46 1.32-.78 1.52-.99 3.82-2.49 8.42-2.85.52-.04 1.03-.06 1.53-.06 3.24 0 5.98.79 8.64 1.56 2.44.7 4.74 1.37 7.23 1.37.17 0 .34 0 .51-.01v3.54c-.59.04-2.7.43-2.95 3.88-.02.31-.04.64-.06.98-.22 3.84-.55 9.65-7.51 13.01-2.07 1-4.19 1.51-6.27 1.51zm.95-24.42c-1.6 0-3.27.24-4.96.71-3.65 1.02-6.83 3.7-8.1 6.84-1.14 2.83-.79 5.97 1.03 9.07 2.44 4.15 6.52 6.54 11.22 6.54 3.04 0 6-1.02 8.13-2.79 4.9-4.07 5.21-12.2 2.2-16.22-1.94-2.59-5.5-4.15-9.52-4.15zm-38.5 0c-4.02 0-7.58 1.55-9.53 4.16-3.01 4.02-2.7 12.15 2.2 16.22 2.13 1.77 5.1 2.79 8.13 2.79 4.7 0 8.78-2.38 11.22-6.54 1.82-3.11 2.18-6.24 1.03-9.07-1.27-3.14-4.45-5.83-8.1-6.84-1.68-.48-3.34-.72-4.95-.72z" fill="#000000" stroke-width="none" opacity="1"></path><path id="SvgjsPath11991" d="M118.72 86.97c3.22 0 5.96.79 8.6 1.55 2.45.71 4.76 1.37 7.27 1.37.13 0 .26 0 .4-.01v3.3c-.71.08-2.7.6-2.95 3.98-.02.31-.04.64-.06.98-.22 3.82-.54 9.58-7.45 12.91-2.07 1-4.16 1.5-6.23 1.5-4.26 0-8.47-2.27-11.25-6.08-3.1-4.24-3.86-8.79-3.98-9.64.38-.27 1.44-1.14 1.27-2.27-.18-1.19-2.78-1.32-3.88-1.32h-.91c-1.11 0-3.7.13-3.88 1.32-.17 1.13.89 2 1.27 2.27-.12.85-.88 5.4-3.98 9.64-2.78 3.81-6.99 6.08-11.25 6.08-2.06 0-4.16-.51-6.23-1.5-6.9-3.33-7.23-9.09-7.45-12.91-.02-.34-.04-.67-.06-.98-.24-3.35-2.21-3.89-2.95-3.98V89.9c.13 0 .26.01.4.01 2.51 0 4.82-.67 7.27-1.37 2.65-.76 5.38-1.55 8.6-1.55.51 0 1.02.02 1.52.06 4.57.36 6.85 1.85 8.37 2.83.5.32.92.6 1.34.79.63.28 1.48.41 2.67.41.89 0 1.84-.07 2.75-.14.62-.05 1.2-.09 1.74-.11h.64c.55.02 1.13.07 1.75.11.92.07 1.87.14 2.75.14 1.19 0 2.04-.13 2.67-.41.41-.18.84-.46 1.34-.79 1.51-.99 3.8-2.48 8.37-2.83.5-.06 1.01-.08 1.52-.08m-.28 24.59c3.06 0 6.06-1.03 8.21-2.81 4.95-4.11 5.26-12.32 2.22-16.38-1.97-2.63-5.57-4.21-9.63-4.21-1.61 0-3.29.24-4.99.71-3.68 1.03-6.9 3.74-8.18 6.91-1.16 2.87-.8 6.04 1.04 9.18 2.47 4.19 6.59 6.6 11.33 6.6m-36.88 0c4.74 0 8.86-2.4 11.32-6.6 1.84-3.14 2.2-6.31 1.04-9.18-1.28-3.17-4.49-5.89-8.18-6.91-1.7-.47-3.38-.71-4.99-.71-4.06 0-7.66 1.57-9.63 4.21-3.04 4.06-2.72 12.28 2.22 16.38 2.16 1.78 5.15 2.81 8.22 2.81m37.16-24.83c-.5 0-1.02.02-1.54.06-6.08.48-8.12 2.9-9.78 3.64-.67.3-1.58.39-2.57.39-1.47 0-3.12-.2-4.49-.26h-.65c-1.37.05-3.03.26-4.49.26-1 0-1.9-.09-2.57-.39-1.66-.74-3.7-3.16-9.78-3.64-.53-.04-1.04-.06-1.54-.06-6.23 0-10.68 2.93-15.87 2.93-.21 0-.42 0-.63-.01v3.77h.02c.22 0 2.67.08 2.93 3.77.28 3.87 0 10.4 7.64 14.09 2.21 1.07 4.34 1.53 6.33 1.53 4.89 0 8.96-2.77 11.45-6.18 3.5-4.79 4.04-9.9 4.04-9.9s-1.47-.92-1.29-2.12c.16-1.06 3.01-1.12 3.65-1.12h.91c.64 0 3.48.06 3.65 1.12.18 1.2-1.29 2.12-1.29 2.12s.55 5.11 4.04 9.9c2.49 3.4 6.56 6.18 11.45 6.18 1.99 0 4.12-.46 6.33-1.53 7.64-3.68 7.37-10.22 7.64-14.09.26-3.69 2.71-3.77 2.93-3.77h.02v-3.77c-.21.01-.42.01-.63.01-5.24 0-9.69-2.92-15.91-2.93zm-.28 24.59c-4.11 0-8.42-1.88-11.12-6.48-4.7-8.01 1.38-14.18 7-15.74 1.74-.49 3.39-.7 4.93-.7 4.29 0 7.65 1.72 9.44 4.11 3 4.01 2.7 12.01-2.18 16.06-2.09 1.71-5.02 2.75-8.07 2.75zm-36.88 0c-3.05 0-5.98-1.03-8.06-2.76-4.88-4.05-5.18-12.05-2.18-16.06 1.79-2.39 5.14-4.11 9.44-4.11 1.53 0 3.18.22 4.93.7 5.62 1.57 11.69 7.73 7 15.74-2.71 4.61-7.02 6.49-11.13 6.49z" fill="#000000" stroke-width="none" opacity="1"></path></g></g></g></g></g><rect id="svga-credit-rect" width="200" height="15" x="0" y="185" fill="#ecf0f1" opacity="0.5" style="display: none;"></rect><text id="svga-credit-text" font-family="Avenir Next, Roboto, Helvetica, Arial, sans-serif" font-size="10px" text-anchor="start" font-weight="400" size="10px" anchor="start" weight="400" fill="#333333" x="33.402061462402344" y="182.71133995056152" style="display: none;"><tspan id="SvgjsTspan11732" dy="13" x="33.402061462402344">Created on AvatarMaker.com</tspan></text></g><defs id="SvgjsDefs11684"><linearGradient id="SvgjsLinearGradient11979" x1="81.9825" y1="87.8318" x2="81.9825" y2="111.9101" gradientUnits="userSpaceOnUse" class="svga-on-canvas-glasses-gradient-single-0-null"><stop id="SvgjsStop11980" stop-opacity="1" stop-color="#9ab4d3" offset="0" ></stop><stop id="SvgjsStop11981" stop-opacity="0.7593" stop-color="#93aed1" offset="0.2407" ></stop><stop id="SvgjsStop11982" stop-opacity="0.4009" stop-color="#7e9ecc" offset="0.5991" ></stop><stop id="SvgjsStop11983" stop-opacity="0" stop-color="#6086c4" offset="1" ></stop></linearGradient><linearGradient id="SvgjsLinearGradient11985" x1="-18.0175" y1="87.8318" x2="-18.0175" y2="111.9101" gradientTransform="matrix(-1 0 0 1 100 0)" gradientUnits="userSpaceOnUse" class="svga-on-canvas-glasses-gradient-single-1-null"><stop id="SvgjsStop11986" stop-opacity="1" stop-color="#9ab4d3" offset="0" ></stop><stop id="SvgjsStop11987" stop-opacity="0.7593" stop-color="#93aed1" offset="0.2407" ></stop><stop id="SvgjsStop11988" stop-opacity="0.4009" stop-color="#7e9ecc" offset="0.5991" ></stop><stop id="SvgjsStop11989" stop-opacity="0" stop-color="#6086c4" offset="1" ></stop></linearGradient></defs></svg>